<svg viewBox="0 0 586 435" fill="none" xmlns="http://www.w3.org/2000/svg">
<path d="M338.469 0.501831H354.216L363.215 1.78188L373.339 4.34198L382.338 7.75544L389.087 11.1689L396.211 15.4357L401.835 19.7026L405.585 23.116L410.084 27.8095L413.833 32.503L417.958 39.33L420.958 46.1569L423.582 54.2638L426.207 66.211L430.331 88.3985L432.956 98.6388L435.206 105.466L438.205 112.293L441.205 118.266L444.954 124.24L449.454 130.213L452.828 134.48L462.202 145.147L466.326 148.987L469.701 152.401L474.95 157.094L479.825 161.361L483.574 164.348V165.628L484.699 164.348L487.324 157.094L488.823 150.694L489.948 141.307L491.823 139.174L494.073 138.747L496.697 141.307L498.197 145.147V151.548L496.322 158.374L491.823 171.175L488.449 180.989V186.535L493.323 190.376L497.447 194.642L498.947 197.629L499.322 201.896L498.197 206.59L495.198 210.856L490.323 214.697L485.824 216.83L482.449 217.683L479.075 218.11L476.45 223.23L472.326 228.777L467.826 233.044L462.202 236.884L456.953 239.871L448.704 243.284H447.954L448.329 246.698L444.954 248.404L413.459 259.498L392.086 268.459L357.591 282.539L336.969 290.646L314.847 298.753L291.975 306.433L271.353 312.834L264.603 314.54L263.104 323.074L259.354 343.555L256.729 361.049L254.48 380.249L252.605 402.01L251.855 412.677L251.105 431.451H545.066L545.441 433.585L545.066 434.438H63.2553V431.451L130.371 431.025L127.747 415.664L120.248 372.996L117.998 359.769L114.998 357.635L112.374 354.222L107.874 346.115L100 332.461L93.6262 321.367L92.8763 320.087L89.1268 321.367L73.3789 327.341L58.7559 332.034L43.3829 336.301L38.5086 337.581L29.8847 342.701L25.0104 344.408L23.1356 344.835H16.0116L11.8871 343.555L7.38772 340.995L3.63822 337.154L1.38852 332.888L0.263672 328.621V320.941L1.38852 316.247L4.01317 310.273L7.38772 305.58L11.8871 301.313L16.7615 297.9L24.6354 294.06L41.1332 288.513L50.507 285.526L59.5058 281.686L70.3793 275.712L77.1284 271.445L84.2525 266.325L91.7515 260.778L96.6258 257.365L104.875 252.245L106.749 251.818V249.258L111.624 243.711L114.998 239.017L118.748 233.471L122.497 225.364L123.997 219.817L124.372 217.257V210.43L123.622 205.31L121.373 198.483L118.373 192.509L114.998 187.389L110.499 181.842L106.375 177.148L101.125 172.455L96.2509 168.188L85.7523 159.654L79.0032 153.681L73.7539 148.561L67.0048 140.88L63.2553 134.907L60.2557 128.08L58.3809 120.826L58.006 118.266V109.306L59.8807 99.4922L61.7555 93.5187L65.505 85.4117L68.5046 80.7182L73.004 74.7446L76.0036 71.3312L81.2529 66.6376L87.2521 61.9441L95.126 56.8239L106 51.2771L119.498 46.1569L128.872 43.1701L143.12 39.7566L158.118 37.1965L174.615 35.4898L216.985 32.503L235.357 30.3696L247.731 28.2362L258.604 25.6761L270.228 21.836L290.1 14.1557L298.349 10.7422L310.722 6.47539L320.846 3.48861L330.97 1.3552L338.469 0.501831Z" fill="#D9E5FF"/>
<path d="M197.862 118.693H202.362L205.736 119.973L209.111 122.533L210.611 124.666V125.52H218.485L222.984 128.08L225.984 131.067L227.483 133.627L228.608 137.894L232.358 139.174L235.357 142.16L236.857 144.294L237.982 148.561V151.974L237.232 154.961L239.482 155.814L241.356 157.521L243.231 161.788V165.201L242.481 167.761L242.856 170.321L244.731 176.295L244.356 179.282L243.981 180.989L245.106 183.549L244.731 187.389L242.106 190.376V201.896L241.731 211.71L240.232 227.07L238.732 236.457L236.107 248.831L234.232 254.378L231.983 258.218L230.858 259.925V260.778L232.358 261.632L234.982 263.338H237.982L241.731 261.205L246.606 257.365L252.605 253.951L258.229 251.818L269.103 249.258L309.222 241.151L348.217 233.471L435.581 216.403L438.205 215.977L438.955 218.11L443.08 217.257L448.329 215.55L450.579 213.416L453.953 208.723L458.827 202.323L467.826 190.376L471.951 184.829L474.95 180.562L478.7 175.015L482.074 169.468L485.449 162.641L488.074 154.534L489.198 147.707L489.948 141.307L491.823 139.174L494.073 138.747L496.697 141.307L498.197 145.147V151.547L496.322 158.374L491.823 171.175L488.449 180.989V186.535L493.323 190.376L497.447 194.642L498.947 197.629L499.322 201.896L498.197 206.59L495.198 210.856L490.323 214.696L485.824 216.83L482.449 217.683L479.075 218.11L476.45 223.23L472.326 228.777L467.826 233.044L462.202 236.884L456.953 239.871L448.704 243.284H447.954L448.329 246.698L444.954 248.404L413.459 259.498L392.086 268.458L357.591 282.539L336.969 290.646L314.847 298.753L291.975 306.433L271.353 312.833L264.603 314.54L263.104 323.074L259.354 343.555L256.729 361.049L254.48 380.249L252.605 402.01L251.855 412.677L251.105 431.451H545.066L545.441 433.585L545.066 434.438H63.2553V431.451L130.371 431.025L127.747 415.664L120.248 372.996L117.998 359.769L114.998 357.635L112.374 354.222L107.874 346.115L100 332.461L93.6262 321.367L92.8763 320.087L89.1268 321.367L73.3789 327.341L58.7559 332.034L43.3829 336.301L38.5086 337.581L29.8847 342.701L25.0104 344.408L23.1356 344.835H16.0116L11.8871 343.555L7.38772 340.995L3.63822 337.154L1.38852 332.888L0.263672 328.621V320.94L1.38852 316.247L4.01317 310.273L7.38772 305.58L11.8871 301.313L16.7615 297.9L24.6354 294.059L41.1332 288.513L50.507 285.526L59.5058 281.686L70.3793 275.712L77.1284 271.445L84.2525 266.325L91.7515 260.778L96.6258 257.365L104.875 252.245L110.499 249.684L117.248 247.551L123.997 246.698H127.372L132.621 247.551L137.495 249.258L146.494 253.951L152.118 256.511L155.868 257.365H160.742L164.117 256.511L165.617 255.658L167.866 250.538L168.991 246.271V242.858L167.491 236.031L165.992 232.617L162.617 228.35L159.242 224.937L152.868 219.39L149.494 215.977L147.244 212.563L145.744 209.15L145.369 207.443V204.029L146.119 201.043L144.244 199.336L143.12 196.776V193.362L144.244 191.229V189.522L142.37 187.815L140.12 183.549L139.745 182.269V176.722L141.245 172.455L144.244 169.041L146.494 167.761L145.744 165.201L144.244 160.934V154.961L145.744 150.694L148.369 147.281L152.493 144.721L155.493 144.294V140.88L156.618 136.614L158.868 132.773L161.867 130.213L164.117 128.933L168.991 128.08L171.991 124.24L176.115 121.253L178.74 119.973L180.615 119.546H186.614L190.363 120.826L191.863 121.68L193.363 121.253L196.363 119.12L197.862 118.693Z" fill="#4D7FEA"/>
<path d="M545.814 110.159H552.938L558.563 111.866L568.686 117.413L572.061 120.4L574.311 122.533L577.31 126.8L580.31 132.773L582.559 138.747L584.434 146.427L585.559 156.668V163.495L584.434 174.588L582.185 184.829L579.935 191.656L576.935 198.909L572.436 206.59L567.936 212.563L563.812 216.83L558.563 220.67L553.688 223.23L547.689 224.937L541.315 225.364L544.69 233.471L546.939 239.871L549.189 248.831L550.689 260.352V271.445L549.564 281.686L547.689 291.073L545.064 301.313L541.69 311.98L537.565 323.074L531.566 337.154L527.067 346.115L521.818 355.929L517.318 363.182L513.569 368.729L510.194 373.422L504.57 380.249L500.82 384.516L497.821 387.503L492.197 392.623L484.323 398.17L477.199 402.437L471.574 404.997L463.325 407.984L454.327 410.117L445.328 411.397L440.078 411.824H411.957L391.71 410.544L252.604 400.303L252.978 392.623L254.853 373.422L257.103 355.929L260.103 337.154L263.852 317.1L264.602 314.54L271.351 312.407L289.349 306.86L311.096 299.606L328.718 293.206L343.716 287.659L359.839 281.259L404.458 262.912L415.707 258.218L440.078 249.685L447.952 246.698V243.284L457.701 239.017L463.7 235.604L468.2 232.191L473.074 227.497L476.074 223.23L479.073 217.683L484.323 216.83L488.822 215.123L493.321 212.136L495.946 209.576L497.821 206.59L498.946 201.896L498.571 197.629L496.321 193.789L492.946 190.376L488.447 186.962L488.072 186.535V180.989L491.447 171.175L491.822 172.455L493.321 173.308L500.445 178.855L506.82 184.402L507.569 184.829L507.944 172.455L509.069 162.215L511.319 151.974L513.944 143.867L518.443 134.054L522.942 126.8L528.192 120.4L531.941 116.986L536.816 113.573L541.315 111.439L545.814 110.159Z" fill="#D9E5FF"/>
<path d="M197.862 118.693H202.362L205.736 119.973L209.111 122.533L210.611 124.666V125.52H218.485L222.984 128.08L225.984 131.067L227.483 133.627L228.608 137.894L232.358 139.174L235.357 142.16L236.857 144.294L237.982 148.561V151.974L237.232 154.961L239.482 155.814L241.356 157.521L243.231 161.788V165.201L242.481 167.761L242.856 170.321L244.731 176.295L244.356 179.282L243.981 180.989L245.106 183.549L244.731 187.389L242.106 190.376V201.896L241.731 211.71L240.232 227.07L238.732 236.457L236.107 248.831L234.232 254.378L231.983 258.218L230.858 259.925V260.778L232.358 261.632L234.982 263.338H237.982L241.731 261.205L246.606 257.365L252.605 253.951L258.229 251.818L269.103 249.258L309.222 241.151L348.217 233.471L435.581 216.403L438.205 215.977L438.955 218.11L443.08 217.257L448.329 215.55L450.579 213.416L453.953 208.723L458.827 202.323L467.826 190.376L471.951 184.829L474.95 180.562L478.7 175.015L482.074 169.468L485.449 162.641L488.074 154.534L489.198 147.707L489.948 141.307L491.823 139.174L494.073 138.747L496.697 141.307L498.197 145.147V151.547L496.322 158.374L491.823 171.175L488.449 180.989V186.535L493.323 190.376L497.447 194.642L498.947 197.629L499.322 201.896L498.197 206.59L495.198 210.856L490.323 214.696L485.824 216.83L482.449 217.683L479.075 218.11L476.45 223.23L472.326 228.777L467.826 233.044L462.202 236.884L456.953 239.871L448.704 243.284H447.954L448.329 246.698L444.954 248.404L413.459 259.498L392.086 268.458L357.591 282.539L336.969 290.646L314.847 298.753L291.975 306.433L271.353 312.833L264.603 314.54L263.104 323.074L259.354 343.555L256.729 361.049L254.48 380.249L252.605 402.01L251.855 412.677L251.105 431.451H545.066L545.441 433.585L545.066 434.438H63.2553V431.451L130.371 431.025L127.747 415.664L120.248 372.996L117.998 359.769L114.998 357.635L112.374 354.222L107.874 346.115L100 332.461L93.6262 321.367L92.8763 320.087L89.1268 321.367L73.3789 327.341L58.7559 332.034L43.3829 336.301L38.5086 337.581L29.8847 342.701L25.0104 344.408L23.1356 344.835H16.0116L11.8871 343.555L7.38772 340.995L3.63822 337.154L1.38852 332.888L0.263672 328.621V320.94L1.38852 316.247L4.01317 310.273L7.38772 305.58L11.8871 301.313L16.7615 297.9L24.6354 294.059L41.1332 288.513L50.507 285.526L59.5058 281.686L70.3793 275.712L77.1284 271.445L84.2525 266.325L91.7515 260.778L96.6258 257.365L104.875 252.245L110.499 249.684L117.248 247.551L123.997 246.698H127.372L132.621 247.551L137.495 249.258L146.494 253.951L152.118 256.511L155.868 257.365H160.742L164.117 256.511L165.617 255.658L167.866 250.538L168.991 246.271V242.858L167.491 236.031L165.992 232.617L162.617 228.35L159.242 224.937L152.868 219.39L149.494 215.977L147.244 212.563L145.744 209.15L145.369 207.443V204.029L146.119 201.043L144.244 199.336L143.12 196.776V193.362L144.244 191.229V189.522L142.37 187.815L140.12 183.549L139.745 182.269V176.722L141.245 172.455L144.244 169.041L146.494 167.761L145.744 165.201L144.244 160.934V154.961L145.744 150.694L148.369 147.281L152.493 144.721L155.493 144.294V140.88L156.618 136.614L158.868 132.773L161.867 130.213L164.117 128.933L168.991 128.08L171.991 124.24L176.115 121.253L178.74 119.973L180.615 119.546H186.614L190.363 120.826L191.863 121.68L193.363 121.253L196.363 119.12L197.862 118.693ZM436.705 217.683L400.335 224.937L268.728 250.965L258.229 253.525L251.48 256.085L246.606 259.071L240.982 263.338L237.232 265.045L234.607 264.618L230.108 262.058L227.858 268.032L224.484 272.725L221.859 275.285L218.11 277.846L213.61 279.979L207.236 281.686L203.861 282.112H196.363L189.613 280.832L183.989 278.699L178.365 275.285L174.24 271.445L170.866 267.178L167.866 261.632L165.992 257.791L165.242 257.365L161.867 258.645H154.743L148.744 256.511L141.245 252.671L133.746 249.258L129.246 248.404H121.747L115.373 249.684L107.499 252.671L100.375 256.511L92.5014 262.058L86.8771 266.325L80.503 271.019L72.629 276.139L67.0048 279.552L59.5058 283.392V284.672L61.7555 284.246L67.7547 281.686L75.2537 277.846L81.2529 273.579L86.5022 269.312L92.5014 264.618L97.7507 261.632L100.75 260.778H105.625L110.499 262.485L114.248 264.618L119.498 268.885L122.122 272.725L123.622 272.299L130.371 267.178L131.871 266.325H134.496L137.12 268.885L141.245 276.139L146.119 284.672L156.993 303.446L165.242 317.527L165.992 319.234V322.647L164.867 324.781L160.742 328.194L154.743 332.461L135.621 346.968L122.497 356.782L119.873 358.489L120.248 364.462L131.871 430.598L132.246 431.451H249.23L249.605 431.025L250.73 407.984L252.23 389.21L254.48 367.876L257.104 349.102L260.104 331.608L263.479 314.54L264.603 313.26L289.35 305.58L309.972 298.753L328.72 291.926L347.092 285.099L365.09 277.846L382.713 270.592L399.96 263.338L408.584 259.925L422.082 254.805L446.454 246.271L446.829 245.844L446.454 241.151L444.204 231.764L441.205 224.083L438.205 218.11L436.705 217.683Z" fill="#111111"/>
<path d="M238.731 172.455H239.481L239.856 174.162L240.605 190.802V206.163L239.856 217.683L238.356 230.484L236.106 242.858L234.231 250.538L232.357 255.658L229.732 258.645L225.607 260.778L221.858 261.632L217.734 261.205L210.235 258.645L203.86 255.658L204.235 256.938L209.86 259.498L216.984 262.058L218.858 262.485H223.358L228.232 260.778H228.982L228.607 263.338L225.982 269.312L221.108 274.859L215.484 278.272L208.735 280.406L201.986 281.259L194.862 280.832L188.862 279.552L182.863 276.992L177.614 273.152L173.114 268.459L169.74 263.338L167.115 257.365L167.49 254.805L169.365 250.111L170.865 243.711L171.24 239.017L170.115 232.191L169.365 230.484V228.35L169.74 227.497L165.615 225.79L161.491 222.804L158.116 219.39L154.742 213.416L153.242 209.15L152.867 207.443V201.896L153.992 199.336L155.492 198.056L158.491 197.629L160.741 198.909L161.866 200.189V201.043H164.491L165.99 201.469H171.99L175.739 200.189L179.114 197.629L181.363 195.496L184.738 190.802L188.487 185.255L192.237 180.989L195.986 178.429L200.486 177.148L204.61 177.575L210.609 179.709L218.483 182.695L220.358 183.122H226.357L230.482 181.415L234.981 178.429L237.231 175.442L238.731 172.455Z" fill="#F9FCFC"/>
<path d="M545.815 111.866H552.19L556.689 113.146L561.938 116.133L565.688 119.973L569.062 124.24L572.062 130.213L574.312 136.187L575.811 142.16L576.936 149.414L577.311 154.961V160.081L576.186 171.175L573.937 181.842L570.937 190.802L567.563 198.056L563.438 204.883L558.939 210.43L555.189 214.27L549.94 218.11L544.316 220.67L540.941 221.523H533.817L529.318 220.243L524.443 217.257L520.694 213.416L517.319 209.15L513.945 202.749L511.695 195.922L510.195 188.669L509.445 181.842V170.748L510.57 160.934L512.445 152.401L515.07 144.294L518.819 135.76L522.944 128.933L526.693 124.24L528.568 122.106L532.317 118.266L537.192 114.853L542.441 112.719L545.815 111.866Z" fill="#FAFCFC"/>
<path d="M56.5064 285.099H58.3811L59.8809 287.659L63.2555 296.193L65.1302 303.446L65.8801 307.713V309.847L60.6308 315.394L57.6312 318.38L52.3819 323.501L47.1326 328.194L41.5084 333.314L35.1342 338.008L29.135 341.421L24.2607 343.128L22.3859 343.555H17.1366L12.2623 342.275L8.13782 339.715L5.13822 336.728L3.26347 333.741L1.76367 328.621V320.087L3.26347 314.967L5.51317 310.273L10.0126 304.727L14.8869 300.886L20.8861 297.473L28.0102 294.486L54.2567 285.952L56.5064 285.099Z" fill="#4D7FEA"/>
<path d="M131.869 267.605H134.119L135.993 269.312L140.118 276.566L143.117 281.686L144.242 283.819L143.867 285.526L141.993 288.086L140.868 291.499L140.118 297.473V310.7L138.993 316.247L137.118 320.087L134.494 323.501L129.244 327.767L115.371 335.448L111.247 338.861L107.872 342.701L106.372 340.995L102.623 334.168L90.6244 313.687L86.4999 306.433L86.125 305.58V302.167L90.6244 298.326H91.7492L93.249 302.167L93.9989 310.273L96.6236 311.127L100.373 308.993L101.498 306.433V300.46L99.9981 294.913L99.2482 293.206L99.6232 291.499L100.748 291.073L102.248 292.78L103.748 296.62L104.498 304.3L104.872 306.433L104.123 309.42L104.498 313.687L106.372 316.674L108.247 317.954L109.747 318.38H112.371L115.746 316.674L117.246 314.54L117.996 312.407V308.567L116.496 305.153L114.246 303.447L114.996 301.74L117.246 300.033L119.496 295.766L122.12 292.353L123.62 290.219L124.745 286.806L125.12 285.099V281.259L123.995 276.139L123.62 273.579L129.994 268.885L131.869 267.605Z" fill="#F6FBFB"/>
<path d="M100.374 262.058H105.998L110.497 263.765L115.747 267.179L120.246 271.872L122.496 275.712L123.995 280.406V285.526L122.871 289.366L120.996 292.353L120.246 291.926L118.746 284.246L115.747 277.846L111.622 272.725L107.498 269.739L104.498 268.459L105.998 270.165L110.122 273.152L113.122 276.139L116.496 281.686L118.371 286.806L119.121 292.353L118.371 295.766L116.871 298.326L113.872 301.313H112.372V293.633L110.872 289.366L108.248 285.099L104.123 280.406L98.8738 276.566L96.9991 275.712L97.374 276.992L102.248 280.406L105.998 284.246L108.623 287.659L111.247 293.633L111.622 295.766V299.606L110.497 302.167L107.873 304.727L105.998 305.153L105.623 304.3L104.873 296.62L103.373 292.353L99.9987 288.086L96.9991 285.953L93.6245 284.673L91.7498 284.246L93.2496 286.806L95.8742 289.793L98.4989 294.486L100.374 300.033L100.749 302.593V306.007L99.2488 308.567L96.9991 309.847L95.4993 309.42L95.1243 308.993L93.9995 300.886L92.1247 296.62L90.25 293.633L86.8754 290.646L83.5009 288.939L83.8758 290.219L87.2504 292.353L88.7502 294.06L88.3752 295.766L85.7506 299.606L82.376 302.167L79.7514 303.02H74.877L71.8774 301.74L69.2528 300.46L70.7526 302.167L71.5025 302.593L71.1275 303.873L67.753 306.007H66.6281L64.3784 297.046L60.6289 286.379L64.3784 284.673L72.2524 280.832L79.3764 276.566L86.1255 271.445L91.7498 266.752L96.9991 263.338L100.374 262.058Z" fill="#F4FAFA"/>
<path d="M492.573 140.454L494.448 140.88L495.948 143.014L497.073 146.854L496.698 151.974L494.448 159.654L489.574 173.308L486.949 180.562H484.324L482.075 181.842L479.825 186.109L477.575 189.949L474.201 193.789L471.201 195.922L469.701 196.776L469.326 197.629L472.701 196.349L476.075 193.362L479.075 189.949L482.449 183.122L483.574 181.842L486.199 182.269L486.949 183.549L486.574 187.389L482.824 202.323L479.075 214.697L476.45 220.67L473.076 225.79L469.701 229.63L465.577 233.044L460.327 236.457L452.453 240.297L447.954 242.004L446.829 238.591L444.58 230.057L441.58 222.377L440.455 220.243V219.39L448.704 217.257L451.329 214.697L454.703 210.003L459.578 203.603L464.077 197.629L468.951 191.229L472.326 186.535L477.575 179.282L482.449 171.602L486.199 164.348L489.199 155.814L490.698 147.281L491.073 142.587L491.823 140.88L492.573 140.454Z" fill="#F6FBFB"/>
<path d="M545.815 110.159H552.939L558.564 111.866L568.687 117.413L572.062 120.4L574.311 122.533L577.311 126.8L580.311 132.773L582.56 138.747L584.435 146.427L585.56 156.668V163.495L584.435 174.588L582.185 184.829L579.936 191.656L576.936 198.909L572.437 206.59L567.937 212.563L563.813 216.83L558.564 220.67L553.689 223.23L547.69 224.937H536.442L530.442 223.657L525.943 221.523L522.193 218.537L518.444 214.697L514.319 207.87L511.32 200.616L509.445 193.362L508.32 185.255L507.945 180.989V172.455L509.07 162.215L511.32 151.974L513.945 143.867L518.444 134.054L522.943 126.8L528.193 120.4L531.942 116.986L536.816 113.573L541.316 111.439L545.815 110.159ZM545.815 111.866L540.191 113.573L536.442 115.279L531.942 118.693L528.193 122.533L526.318 124.667L522.568 129.36L518.444 136.614L513.945 147.281L511.695 155.388L510.195 163.495L509.445 170.748V181.842L510.57 190.802L512.82 199.763L515.819 206.59L519.194 211.71L523.318 216.403L527.068 218.963L530.442 220.67L533.817 221.523H540.941L546.565 219.817L552.564 216.403L557.439 212.136L561.938 207.016L565.688 201.469L569.812 193.362L572.812 185.682L575.436 175.442L576.936 164.775L577.311 160.081V154.961L576.561 146.427L575.061 138.747L572.812 131.92L569.812 125.52L566.812 121.253L563.063 116.986L557.814 113.573L554.439 112.293L552.189 111.866H545.815Z" fill="#111111"/>
<path d="M83.5022 302.593L85.002 303.02L85.377 306.007L87.6267 310.273L90.2513 314.967L91.7511 317.527L91.3762 318.807L78.2529 323.927L65.8796 328.194L52.0064 332.461L42.6327 335.021L41.5078 334.594L46.3822 330.328L54.6311 322.647L59.8804 317.527L64.7547 312.407L66.6295 310.273L67.3794 307.713L70.379 305.58L73.0036 303.873H80.1277L83.5022 302.593Z" fill="#4D7FEA"/>
<path d="M487.698 188.242L489.948 189.522L493.323 192.509L495.572 194.642L497.447 197.629L497.822 200.189L496.322 203.603L492.573 207.87L488.448 210.856L484.699 212.563L482.449 212.136L481.699 211.283L482.074 208.296L483.574 204.456L486.574 202.749L486.949 201.469L485.449 197.629L486.574 191.656L487.323 188.669L487.698 188.242Z" fill="#F1F9F9"/>
<path d="M563.436 127.227L564.561 127.653L564.186 129.787L559.312 140.88L554.813 150.267L546.939 167.761L542.814 176.295L539.815 183.122L536.065 191.229L533.065 197.203H531.941L530.066 186.962L525.566 158.801V155.388L526.691 155.814L527.441 159.228L532.316 189.096L533.065 192.936L536.815 184.829L542.064 173.308L545.814 165.201L551.063 153.681L555.562 144.294L563.061 127.653L563.436 127.227Z" fill="#111111"/>
<path d="M92.1246 319.661L93.6244 320.514L97.3739 327.341L101.123 333.741L108.247 346.115L111.622 352.088V352.942L109.747 352.088L105.998 348.675L102.248 344.408L98.8737 339.715L96.624 336.301L91.7496 327.767L89.8749 323.927L89.125 320.941L92.1246 319.661Z" fill="#4D7FEA"/>
<path d="M88.0021 265.472L88.752 265.898V267.605L83.5027 271.872L77.8784 276.139L72.2542 279.552L61.0057 284.673H59.5059V283.392L67.7548 279.126L76.0037 274.005L82.3778 269.739L88.0021 265.472Z" fill="#4D7FEA"/>
<path d="M227.857 211.71L229.357 212.136L234.981 222.803L235.356 225.364L231.607 234.751L230.107 235.604L229.732 234.751L233.482 225.79L233.107 223.23L229.732 216.403L227.857 212.563V211.71Z" fill="#111111"/>
<path d="M495.945 205.31H496.695L495.945 207.443L492.571 211.283L487.321 214.697L483.197 215.977H479.822L480.572 213.417L482.072 212.99L485.447 213.417L489.946 211.283L494.445 207.443L495.945 205.31Z" fill="#F6FBFB"/>
<path d="M213.984 205.31L215.484 205.736L216.609 209.15V211.71L215.859 213.417L213.984 212.99L212.859 210.003V207.016L213.984 205.31Z" fill="#111111"/>
<path d="M207.611 233.897L209.111 234.751L211.361 238.164L214.735 241.578L218.11 243.711V244.991L215.86 244.564L211.361 241.151L208.361 237.311L207.236 234.324L207.611 233.897Z" fill="#111111"/>
<path d="M231.23 201.043L232.73 201.469L233.855 204.456V207.443L233.105 209.15L231.605 208.723L230.105 205.736L230.48 201.896L231.23 201.043Z" fill="#111111"/>
<path d="M214.733 196.349H215.858V197.629L209.859 200.616L206.484 203.603L204.609 204.456L204.984 202.749L208.734 199.336L213.233 196.776L214.733 196.349Z" fill="#111111"/>
<path d="M159.99 207.016H161.115L160.74 210.003L162.99 212.99L163.365 213.843V216.403L162.24 218.11L160.74 217.683L161.865 215.55L161.115 213.416L159.24 210.856L158.865 208.723L159.99 207.016Z" fill="#111111"/>
<path d="M227.482 192.936H234.231L236.856 193.789V195.069L227.107 194.642L227.482 192.936Z" fill="#111111"/>
<path d="M95.875 286.806L98.4996 288.513L99.6245 290.219L98.4996 290.646L95.875 288.086V286.806Z" fill="#4D7FEA"/>
</svg>
