<svg  viewBox="0 0 521 383" fill="none" xmlns="http://www.w3.org/2000/svg">
<path d="M218.189 0.21814H232.02L241.242 0.990161L250.463 2.14819L261.605 4.07825L274.284 7.16633L284.274 10.2544L298.49 15.6586L309.248 20.6767L320.006 26.0809L326.153 29.555L336.911 36.1171L343.443 40.3633L360.348 51.5576L370.338 58.1198L378.406 63.1379L389.549 69.3141L401.075 75.1042L411.065 78.9643L420.67 81.6664L431.812 83.9825L452.944 88.2286L462.549 90.9307L472.155 94.4048L481.76 99.0369L487.139 102.897L491.366 106.371L494.439 109.845L498.281 114.863L501.739 121.04L504.429 127.216L507.887 138.024L509.424 146.516L510.192 153.85L510.576 161.957V188.205L509.424 217.542L507.118 265.022L505.966 278.532L504.429 288.568L502.508 294.744L499.818 300.921L496.745 305.553L493.287 309.799L490.597 312.115L485.218 315.203L480.223 317.519L476.765 318.291L475.613 321.765L472.539 332.187L464.855 359.208L462.549 367.7L462.165 373.105V379.281L517.108 379.667L520.182 380.053L519.797 382.369L456.786 382.755H367.648L26.4655 382.369L26.0813 380.053L26.4655 379.667H84.0977L82.9451 375.421L79.1029 350.716L76.4134 330.257L74.4923 312.501L72.9555 290.498L71.0344 290.884H57.2027L44.5236 289.726L37.2235 288.182L31.0761 285.866L25.3128 282.778L20.7023 279.304L16.0917 275.058L12.2495 270.812L8.7916 265.794L4.18102 256.143L1.49151 248.423L0.723082 243.791L0.338867 238.773V227.964L1.1073 219.472L3.02837 209.436L5.33366 201.716L8.40738 193.61L12.6337 184.345L18.397 173.923L23.776 166.203L28.0023 160.799L31.4603 156.939L34.1498 153.85L38.7604 148.832L41.8341 146.13L47.2131 141.498L54.129 136.48L59.8922 132.62L69.1133 127.216L76.7976 122.584L85.6346 116.407L89.4767 113.319L94.4715 108.687L97.5452 104.827L102.156 98.2649L105.998 91.7027L109.456 84.3685L117.524 65.454L122.519 55.0317L126.746 48.0835L130.972 42.6793L134.046 38.8192L138.656 33.4151L143.267 29.1689L147.493 25.6949L153.641 21.0627L161.325 16.4306L170.162 11.7985L176.309 9.09639L187.836 5.23628L199.362 2.5342L209.736 0.990161L218.189 0.21814Z" fill="#D9E5FF"/>
<path d="M186.299 22.2207H189.757L193.215 22.9928L197.441 25.3088L200.13 28.0109L202.051 31.099H209.352L213.578 32.643L216.652 34.5731L218.573 36.5031L220.878 39.9772L222.799 44.2234L227.794 45.3814L231.636 48.0835L234.326 51.9436L235.478 56.1897V59.2778L233.941 64.2959L233.557 66.226L237.783 68.9281L240.089 71.6301L240.857 73.1742V78.5783L240.089 80.1224L240.473 82.0524L242.01 83.5965L242.778 86.6845L242.394 90.5447L240.857 92.8607L240.089 94.4048L241.241 96.3348V99.4229L239.705 101.739L238.552 103.283L238.936 104.055V106.757L237.015 108.687L233.557 109.459L230.483 109.073L228.178 113.319L225.873 116.793L228.178 133.392V136.094L226.257 138.024L219.341 143.042L216.267 145.744L212.425 151.92L209.736 156.166L205.509 160.799L201.283 163.115L196.672 164.273L192.83 163.887L186.683 161.957L181.304 158.869L180.151 158.097H178.999L175.156 163.501L172.083 169.677L170.546 173.923L169.393 180.485V185.117L170.162 188.977L174.388 196.312L176.309 200.172L180.151 202.874L185.914 206.734L202.436 218.314L209.736 223.332L215.883 227.964L223.183 233.369L229.331 238.001L235.478 243.019L239.32 246.107L244.315 250.353L247.773 253.055L256.61 251.897L292.726 247.651L336.527 242.633L339.216 242.247H343.443L344.211 243.405L356.506 242.247H368.032L381.864 244.949L384.169 245.721L383.401 246.493L373.411 244.949L366.111 243.791H361.116L345.364 244.949L344.595 245.335L346.901 253.827L347.669 258.845L348.053 267.338V270.426L349.974 270.812L354.585 274.286L360.348 276.988L366.495 278.918L380.711 281.62L385.322 282.778L386.09 284.322L384.169 286.638L381.864 287.024L378.022 285.094L376.869 284.322H374.948L375.717 288.182L378.406 290.884L382.632 292.428H388.78L391.854 291.27L393.006 290.112L393.391 288.954L393.775 276.988L394.927 277.374L395.312 282.006V287.796L396.464 287.41L397.617 285.48L398.001 283.55V280.076L396.848 273.514V270.04L399.538 270.426L404.533 273.9L405.301 274.672L404.917 276.216L402.996 278.532L402.612 282.006L403.38 283.55H406.07L409.143 280.848L411.833 276.216L412.217 275.058V270.812L409.528 267.724L402.612 262.705L399.538 260.389V259.231L406.838 260.003L413.37 261.547L421.054 264.636L426.817 267.724L428.354 268.496H430.659L431.044 266.18L428.738 263.091L425.28 260.775L420.286 258.459L407.222 253.827L397.233 250.739L387.243 248.037L385.322 246.879L386.09 246.107L391.085 247.651L390.701 245.335L384.554 244.949L383.638 244.661L387.627 243.405H390.317L392.238 244.563L392.622 248.037L396.464 248.809L407.991 252.283L420.286 256.529L427.586 260.003L431.428 263.477L432.965 266.18L432.58 268.882L430.659 270.426H428.354L419.517 265.794L412.601 263.091L406.07 261.547H404.149L411.449 266.952L413.754 269.654L414.138 270.812V275.058L412.601 278.918L409.912 282.392L407.222 284.708L405.685 285.48L402.612 285.094L401.075 283.164L400.691 280.848L401.459 277.76L403.38 275.058L399.538 272.356L398.385 271.97L399.538 279.69V284.708L398.001 287.796L394.927 290.498H394.159L393.391 292.042L390.701 293.586L388.396 294.358H383.017L378.406 292.814L374.948 290.112L373.411 287.024V284.708L374.948 282.006L370.722 281.62L361.885 279.304L356.122 276.988L351.511 274.286L349.206 272.356L347.669 271.97L346.516 275.83L345.364 276.602L327.306 280.848L289.652 290.112L267.368 295.516L255.457 297.832L248.541 298.604L239.705 298.99L231.636 298.218L225.104 296.674L218.189 294.358L212.041 291.656L203.588 287.024L196.288 282.392L186.299 275.83L181.688 272.742L180.151 280.462L175.925 295.902L173.235 309.027L171.699 318.677L172.851 318.291L198.594 316.361H200.899L202.051 317.133L203.588 316.747L210.12 316.361L213.578 315.589L218.573 312.887L222.415 311.729L225.104 311.343H235.862L249.694 313.659L259.684 315.589L262.373 316.747L263.142 318.291V320.607L262.373 321.765V322.537L263.91 323.309L264.679 325.239L264.294 328.713L262.373 331.029L258.915 332.187L259.299 333.731V336.82L257.763 340.68L255.842 341.452V342.224L256.994 342.61L256.226 346.856L254.305 349.944L252.768 350.33L251.999 355.348L249.694 358.436L247.005 359.98H242.01L233.941 357.664L222.031 353.032L213.194 348.4L211.657 347.628L204.357 348.4L203.204 348.786L202.436 351.102L190.909 352.26L178.23 354.19L170.93 355.734L171.699 364.998L173.235 376.965L173.62 379.281L323.848 379.667V375.807L324.616 370.788L326.153 368.472L328.074 366.928L329.227 366.542L445.26 366.156L448.717 365.77L456.402 338.75L462.165 318.291L481.376 250.739L484.449 239.545L484.834 239.159L488.292 239.545L497.513 242.247L497.897 243.019L490.597 269.268L483.681 293.2L477.918 313.659L473.307 329.485L464.854 359.208L462.549 367.7L462.165 373.105V379.281L517.108 379.667L520.181 380.053L519.797 382.369L456.786 382.755H367.648L26.4653 382.369L26.0811 380.053L26.4653 379.667H84.0975L82.9449 375.421L79.1027 350.716L76.4132 330.257L74.4921 312.501L73.3395 295.516L72.9553 286.252V273.9L73.7237 258.845L74.8763 246.879L76.7974 234.527L78.7185 224.876L81.7922 213.296L86.4028 199.4L90.6292 189.363L95.2397 179.713L99.8503 171.221L106.382 160.413L111.761 151.92L116.756 144.586L121.366 138.41L125.593 132.62L128.282 126.444L129.435 122.584L129.051 120.653L127.514 117.179L127.13 115.635L126.745 105.599L125.593 102.897L121.366 95.9488L120.598 94.0188V90.5447L122.135 87.0706L125.593 81.6664V79.3503L122.903 75.8762L121.751 72.0161V68.9281L122.519 65.84L124.824 62.3659L127.898 60.0498L128.666 59.6638L128.282 58.1198L127.898 57.3477V52.3296L129.819 48.4695L133.277 45.3814L136.351 43.8374L141.346 43.0653L142.114 40.7493L145.572 36.8892L148.261 34.9591L151.719 33.8011H157.483L160.172 34.5731L161.325 31.099L162.862 28.7829L164.783 26.8529L168.625 24.9228H173.62L176.309 26.0809L178.23 25.6948L181.304 23.7648L183.993 22.6068L186.299 22.2207Z" fill="#4D7FEA"/>
<path d="M186.299 22.2207H189.757L193.215 22.9928L197.441 25.3088L200.13 28.0109L202.051 31.099H209.352L213.578 32.643L216.652 34.5731L218.573 36.5031L220.878 39.9772L222.799 44.2234L227.794 45.3814L231.636 48.0835L234.326 51.9436L235.478 56.1897V59.2778L233.941 64.2959L233.557 66.226L237.783 68.9281L240.089 71.6301L240.857 73.1742V78.5783L240.089 80.1224L240.473 82.0524L242.01 83.5965L242.778 86.6845L242.394 90.5447L240.857 92.8607L240.089 94.4048L241.241 96.3348V99.4229L239.705 101.739L238.552 103.283L238.936 104.055V106.757L237.015 108.687L233.557 109.459L230.483 109.073L228.178 113.319L225.873 116.793L228.178 133.392V136.094L226.257 138.024L219.341 143.042L216.267 145.744L212.425 151.92L209.736 156.166L205.509 160.799L201.283 163.115L196.672 164.273L192.83 163.887L186.683 161.957L181.304 158.869L180.151 158.097H178.999L175.156 163.501L172.083 169.677L170.546 173.923L169.393 180.485V185.117L170.162 188.977L174.388 196.312L176.309 200.172L180.151 202.874L185.914 206.734L202.436 218.314L209.736 223.332L215.883 227.964L223.183 233.369L229.331 238.001L235.478 243.019L239.32 246.107L244.315 250.353L247.773 253.055L256.61 251.897L292.726 247.651L336.527 242.633L339.216 242.247H343.443L344.211 243.405L356.506 242.247H368.032L381.864 244.949L384.169 245.721L385.318 246.798L373.411 244.949L366.111 243.791H361.116L345.364 244.949L344.595 245.335L346.901 253.827L347.669 258.845L348.053 267.338V270.426L349.974 270.812L354.585 274.286L360.348 276.988L366.495 278.918L380.711 281.62L385.322 282.778L386.09 284.322L384.169 286.638L381.864 287.024L378.022 285.094L376.869 284.322H374.948L375.717 288.182L378.406 290.884L382.632 292.428H388.78L391.854 291.27L393.006 290.112L393.391 288.954L393.775 276.988L394.927 277.374L395.312 282.006V287.796L396.464 287.41L397.617 285.48L398.001 283.55V280.076L396.848 273.514V270.04L399.538 270.426L404.533 273.9L405.301 274.672L404.917 276.216L402.996 278.532L402.612 282.006L403.38 283.55H406.07L409.143 280.848L411.833 276.216L412.217 275.058V270.812L409.528 267.724L402.612 262.705L399.538 260.389V259.231L406.838 260.003L413.37 261.547L421.054 264.636L426.817 267.724L428.354 268.496H430.659L431.044 266.18L428.738 263.091L425.28 260.775L420.286 258.459L407.222 253.827L397.233 250.739L387.243 248.037L385.318 246.798L384.169 245.721L391.085 247.651L390.701 245.335L384.169 245.721L381.864 244.949L387.627 243.405H390.317L392.238 244.563L392.622 248.037L396.464 248.809L407.991 252.283L420.286 256.529L427.586 260.003L431.428 263.477L432.965 266.18L432.58 268.882L430.659 270.426H428.354L419.517 265.794L412.601 263.091L406.07 261.547H404.149L411.449 266.952L413.754 269.654L414.138 270.812V275.058L412.601 278.918L409.912 282.392L407.222 284.708L405.685 285.48L402.612 285.094L401.075 283.164L400.691 280.848L401.459 277.76L403.38 275.058L399.538 272.356L398.385 271.97L399.538 279.69V284.708L398.001 287.796L394.927 290.498H394.159L393.391 292.042L390.701 293.586L388.396 294.358H383.017L378.406 292.814L374.948 290.112L373.411 287.024V284.708L374.948 282.006L370.722 281.62L361.885 279.304L356.122 276.988L351.511 274.286L349.206 272.356L347.669 271.97L346.516 275.83L345.364 276.602L327.306 280.848L289.652 290.112L267.368 295.516L255.457 297.832L248.541 298.604L239.705 298.99L231.636 298.218L225.104 296.674L218.189 294.358L212.041 291.656L203.588 287.024L196.288 282.392L186.299 275.83L181.688 272.742L180.151 280.462L175.925 295.902L173.235 309.027L171.699 318.677L172.851 318.291L198.594 316.361H200.899L202.051 317.133L203.588 316.747L210.12 316.361L213.578 315.589L218.573 312.887L222.415 311.729L225.104 311.343H235.862L249.694 313.659L259.684 315.589L262.373 316.747L263.142 318.291V320.607L262.373 321.765V322.537L263.91 323.309L264.679 325.239L264.294 328.713L262.373 331.029L258.915 332.187L259.299 333.731V336.82L257.763 340.68L255.842 341.452V342.224L256.994 342.61L256.226 346.856L254.305 349.944L252.768 350.33L251.999 355.348L249.694 358.436L247.005 359.98H242.01L233.941 357.664L222.031 353.032L213.194 348.4L211.657 347.628L204.357 348.4L203.204 348.786L202.436 351.102L190.909 352.26L178.23 354.19L170.93 355.734L171.699 364.998L173.235 376.965L173.62 379.281L323.848 379.667V375.807L324.616 370.788L326.153 368.472L328.074 366.928L329.227 366.542L445.26 366.156L448.717 365.77L456.402 338.75L462.165 318.291L481.376 250.739L484.449 239.545L484.834 239.159L488.292 239.545L497.513 242.247L497.897 243.019L490.597 269.268L483.681 293.2L477.918 313.659L473.307 329.485L464.854 359.208L462.549 367.7L462.165 373.105V379.281L517.108 379.667L520.181 380.053L519.797 382.369L456.786 382.755H367.648L26.4653 382.369L26.0811 380.053L26.4653 379.667H84.0975L82.9449 375.421L79.1027 350.716L76.4132 330.257L74.4921 312.501L73.3395 295.516L72.9553 286.252V273.9L73.7237 258.845L74.8763 246.879L76.7974 234.527L78.7185 224.876L81.7922 213.296L86.4028 199.4L90.6292 189.363L95.2397 179.713L99.8503 171.221L106.382 160.413L111.761 151.92L116.756 144.586L121.366 138.41L125.593 132.62L128.282 126.444L129.435 122.584L129.051 120.653L127.514 117.179L127.13 115.635L126.745 105.599L125.593 102.897L121.366 95.9488L120.598 94.0188V90.5447L122.135 87.0706L125.593 81.6664V79.3503L122.903 75.8762L121.751 72.0161V68.9281L122.519 65.84L124.824 62.3659L127.898 60.0498L128.666 59.6638L128.282 58.1198L127.898 57.3477V52.3296L129.819 48.4695L133.277 45.3814L136.351 43.8374L141.346 43.0653L142.114 40.7493L145.572 36.8892L148.261 34.9591L151.719 33.8011H157.483L160.172 34.5731L161.325 31.099L162.862 28.7829L164.783 26.8529L168.625 24.9228H173.62L176.309 26.0809L178.23 25.6948L181.304 23.7648L183.993 22.6068L186.299 22.2207ZM125.209 135.322L121.366 140.726L116.372 147.288L112.914 152.692L108.687 159.255L103.308 168.133L97.9292 177.783L92.9344 187.819L89.4765 195.926L86.0186 205.19L82.1764 217.156L78.7185 232.211L76.4132 247.265L75.2606 259.231L74.4921 273.128V285.094L75.2606 301.307L76.7974 319.835L78.7185 336.048L81.408 355.348L84.8659 376.965L85.6344 378.895L171.699 378.509L170.162 364.226L169.009 348.014V338.364L170.162 320.607L172.083 307.097L174.388 295.902L178.614 280.462L180.535 272.356L178.614 270.426L171.699 265.794L154.793 254.599L138.656 243.791L130.972 238.773L114.066 227.578L110.608 225.262V224.104L114.066 226.034L124.44 232.983L135.582 240.317L152.488 251.511L175.541 266.952L182.072 271.198L195.52 280.076L204.741 285.866L210.888 289.34L218.189 292.814L226.257 295.516L231.636 296.674L237.399 297.446H246.236L255.842 296.288L268.905 293.586L301.947 285.48L328.842 278.918L343.827 275.444L345.748 274.672L346.516 269.268V260.389L345.748 254.985L342.674 244.177L340.753 243.791L259.299 253.055L250.078 254.213H247.005L243.162 251.125L236.631 245.721L230.483 240.703L225.873 237.229L219.341 232.211L205.509 222.174L190.141 211.366L175.156 201.33L168.625 197.084L160.94 192.065L151.335 185.889L143.267 180.485L140.193 178.169L139.809 177.397L143.267 178.941L159.404 189.749L166.704 194.382L172.083 197.856L173.62 198.242L170.93 192.838L168.625 189.749L164.783 186.661L160.556 183.187L155.561 178.941L150.951 174.695L147.109 170.449L143.651 166.203L139.424 160.799L134.43 153.078L130.972 146.902L126.745 137.252L125.977 135.322H125.209Z" fill="#131213"/>
<path d="M460.628 319.835H461.397V322.537L455.633 342.61L449.102 365.77L448.717 366.156L444.491 366.542L329.227 366.928L326.921 368.086L325.385 370.016L324.616 372.333L323.848 379.667H173.62L172.851 376.965L170.93 361.524L170.546 355.734L172.467 354.962L185.146 352.646L197.441 351.102H203.588L212.81 354.576L218.573 356.506L221.262 357.278L235.478 361.138L250.463 363.84L262.757 364.998H285.426L296.184 364.226L309.247 362.682L324.232 359.98L340.369 355.734L357.274 350.33L371.106 344.926L379.943 341.066L391.085 336.048L401.075 331.801L412.986 327.169L424.512 323.695L434.502 321.765L441.417 320.993L460.628 319.835Z" fill="#FAFCFC"/>
<path d="M366.496 76.6483L374.949 77.0343L380.328 78.1923L386.475 80.5084L391.086 82.8245L396.465 86.6846L402.996 93.2467L405.686 97.1069L408.375 101.739L410.681 107.529L412.217 113.705L412.602 117.179V125.286L411.833 130.69L409.912 137.252L406.838 143.428L404.149 147.674L399.923 152.306L396.08 156.167L390.317 160.027L384.554 162.729L378.406 164.659L374.18 165.431L367.648 165.817L359.964 165.045L354.201 163.501L349.59 161.571L343.443 158.097L339.217 154.622L337.68 153.464V152.692H336.911L335.759 151.534L330.764 152.306L307.711 155.78V154.622L311.937 149.99L315.395 145.744L320.006 140.34L323.464 136.094L325.385 133.778L325.001 130.304L324.232 125.286V117.565L325.385 110.231L327.306 104.441L330.38 98.2649L334.222 92.8607L338.832 87.8426L343.443 84.3685L348.822 81.2804L353.048 79.3504L359.58 77.4203L366.496 76.6483Z" fill="#FBFCFC"/>
<path d="M163.63 83.9825H167.856L170.93 85.9125L172.467 87.8426L174.004 92.0887L175.925 93.6328L180.919 95.9488L185.146 97.1068H192.062L196.288 95.5628L200.899 92.8607L207.43 87.8426L212.809 84.7545L214.73 85.1405L223.567 89.7726L231.252 93.6328L233.557 95.1768L233.173 98.2649L231.252 104.055L228.562 109.845L225.488 115.249L224.72 116.021L225.104 121.426L226.641 133.006V136.094L222.03 139.568L218.188 142.27L215.115 144.972L212.041 149.99L208.967 154.622L206.278 158.097L203.204 160.799L198.593 162.729H193.214L188.22 161.185L183.225 158.483L179.767 156.167L178.23 156.939L174.388 161.957L170.93 168.519L169.009 173.923L167.856 182.029L168.24 187.433L165.551 185.889L161.324 182.415L157.482 178.941L154.409 176.239L149.03 170.835L145.572 166.589L141.345 161.571L135.966 153.464L131.356 145.358L127.898 137.252L126.745 133.392L129.435 127.216L130.971 122.198L131.356 121.812L137.119 121.04L145.572 118.723L151.719 116.021L157.098 112.933L157.867 112.161L160.172 112.547L162.477 113.705H165.935L168.24 112.547L168.625 111.775L165.167 112.933L161.324 112.161L159.403 111.003L157.482 108.301L155.561 102.897L155.177 100.195V94.4048L156.33 90.5447L159.403 86.2985L162.477 84.3685L163.63 83.9825Z" fill="#FAFCFC"/>
<path d="M361.116 243.405H366.111L373.411 244.563L385.325 246.789L386.567 247.565L403.764 252.283L418.364 257.301L424.512 260.003L428.354 262.319L431.044 265.408L431.428 267.724L430.659 268.882L427.201 268.496L421.822 265.408L416.443 263.091L410.296 261.161L404.533 260.003L399.538 259.231L400.306 260.775L402.612 262.319L409.912 267.724L412.601 270.812V275.058L410.296 279.69L406.838 283.55L406.07 283.936H403.38L402.227 282.006L402.612 278.532L404.917 275.83L404.533 274.286L399.538 270.812L396.848 270.04L397.233 271.97L398.001 278.918L398.385 280.076V283.55L397.617 286.252L396.464 287.796H395.312L394.543 277.374L393.775 276.988V288.954L392.622 290.884L390.317 292.428L388.78 292.814H382.632L378.406 291.27L375.332 288.182L374.948 287.41V284.322L376.869 283.936L380.711 286.252L383.017 286.638L384.938 285.48L385.706 283.55L384.169 282.778L366.495 279.304L358.427 276.602L353.432 273.9L349.206 270.812L348.053 270.426L347.669 271.198V264.25L346.9 255.757L344.211 244.949L349.206 244.177L361.116 243.405Z" fill="#F8FBFB"/>
<path d="M227.026 312.501H233.942L244.316 314.045L258.532 316.747L261.605 317.905V320.607L260.069 321.379L249.311 321.765L242.011 322.923L236.632 324.853L234.71 326.011H233.942L234.326 327.169L239.321 324.853L241.242 324.467L240.089 327.941L235.863 329.099L233.558 330.643L232.789 332.187V334.503L234.326 336.82L235.095 338.364L232.405 340.68L232.021 341.452V344.54L233.942 346.856L232.789 348.786V351.874L234.326 353.804L239.321 356.12L242.779 357.278H245.468V356.12H242.779L238.168 354.576L234.326 352.26L233.558 351.102L233.942 349.172L235.095 347.628L238.937 348.4L251.232 351.102L250.847 354.576L248.542 357.664L246.237 358.822H242.779L234.71 356.506L223.568 352.26L217.421 349.172L213.194 346.47L211.273 346.084L203.973 347.242L203.205 346.856L202.821 331.415L202.052 323.309L201.668 318.677L210.889 317.519L214.347 316.747L220.494 313.659L227.026 312.501Z" fill="#F7FBFB"/>
<path d="M193.983 318.291H200.131L201.284 325.625L201.668 331.029V349.172L201.284 349.558L188.22 351.102L174.388 353.418L170.546 353.804L170.162 347.242V337.592L170.931 325.239L171.315 320.993L172.083 319.835L193.983 318.291Z" fill="#4D7FEA"/>
<path d="M362.27 75.4902H373.796L379.559 76.6483L385.707 78.5783L391.854 81.6664L396.08 84.3685L401.075 89.0006L404.533 92.8607L407.223 96.7208L410.296 102.897L412.217 107.529L413.754 114.091L414.139 117.565V124.9L412.986 131.848L410.296 139.954L407.607 144.972L404.533 149.218L401.075 153.464L398.001 156.166L393.391 159.641L386.475 163.501L379.559 165.817L373.028 166.975H363.806L357.275 165.817L351.511 163.887L345.364 160.799L341.138 158.097L336.143 153.85V153.078L331.532 153.464L315.011 156.166L306.558 157.325H305.021L305.406 155.78L309.248 150.762L312.706 146.902L315.78 143.042L320.39 137.638L323.848 133.392L324.232 132.62L323.08 127.602V114.863L324.616 107.915L326.922 101.739L330.38 95.5628L334.222 90.5447L338.448 86.2985L343.827 82.4384L349.975 78.9643L356.506 76.6483L362.27 75.4902ZM366.496 76.6483L359.58 77.4203L351.896 79.7364L344.596 83.5965L340.369 86.6845L335.759 90.9307L331.917 95.9488L329.611 99.4229L326.153 107.529L324.616 114.091L324.232 117.565V125.286L325.385 132.234L325.001 134.164L320.774 139.182L317.316 143.428L308.095 154.236L307.327 155.394L308.095 155.78L332.685 151.92L335.759 151.534L336.911 152.692H337.68V153.464L341.906 156.939L347.285 160.413L353.048 163.115L358.043 164.659L362.654 165.431L368.417 165.817L376.87 165.045L382.633 163.501L388.78 160.799L393.391 158.097L397.233 155.008L402.996 149.218L405.686 145.358L408.76 139.954L411.065 133.778L412.217 128.76L412.602 125.286V117.179L411.833 112.161L410.296 106.757L408.375 101.739L404.149 94.7908L399.923 90.1586L396.08 86.2985L390.317 82.4384L384.938 79.7364L379.175 77.8063L374.949 77.0343L366.496 76.6483Z" fill="#131213"/>
<path d="M236.247 329.871H241.242L245.853 331.029L250.847 331.801L256.995 332.187L257.763 333.345V337.206L256.611 339.522L255.074 340.68H250.079L240.089 338.75L235.863 337.206L234.326 335.275V331.415L236.247 329.871Z" fill="#F5FAFA"/>
<path d="M236.247 339.136L238.937 339.522L245.852 341.066L255.074 342.224L255.458 342.61L255.074 346.47L253.537 348.786L252.384 349.558H249.31L238.552 347.242L234.71 346.084L233.173 344.154L232.789 342.224L234.71 339.908L236.247 339.136Z" fill="#F2F9F9"/>
<path d="M252.768 322.537H260.068L261.989 323.695L263.142 325.625L262.758 328.327L260.837 330.257L259.684 330.643H249.694L243.163 329.485L241.626 328.713L242.01 326.011L243.931 324.081L245.852 323.309L252.768 322.537Z" fill="#F2F9F9"/>
<path d="M235.094 347.628L238.937 348.4L251.232 351.102L250.847 354.576L248.542 357.664L246.237 358.822H242.779L241.242 358.05L245.468 357.278V356.12H242.779L238.168 354.576L234.326 352.26L233.558 351.102L233.942 349.172L235.094 347.628Z" fill="#F2F9F9"/>
<path d="M388.012 100.581H389.165L388.396 102.897L382.249 115.249L378.407 122.584L373.412 132.234L369.57 139.568L368.033 141.884L366.496 141.498L363.038 137.252L352.28 124.128L350.743 121.812V120.653L352.28 121.426L355.738 125.286L359.964 130.69L364.191 135.708L367.264 139.568L368.033 139.954L368.801 137.252L372.643 129.918L375.717 124.128L378.791 117.951L384.554 106.757L388.012 100.581Z" fill="#131213"/>
<path d="M398.386 271.97L400.307 272.356L403.765 275.058L401.459 278.532L401.075 282.392L399.538 282.006L398.386 273.9V271.97Z" fill="#A9E1E2"/>
<path d="M167.472 92.8607L169.393 93.2467V94.0188L166.704 95.1768L167.088 98.2649L168.241 101.353V103.669L166.704 105.599L164.399 106.371L162.478 105.985V104.827L165.935 104.055L166.704 103.283L166.32 100.967L164.783 97.4928V95.1768L166.32 93.2467L167.472 92.8607Z" fill="#131213"/>
<path d="M190.525 135.708H191.677L192.062 139.182L193.983 143.042L197.056 145.744L198.978 146.902L198.593 148.06L196.672 147.674L193.214 144.972L190.909 141.112L190.141 137.638L190.525 135.708Z" fill="#131213"/>
<path d="M210.505 106.371L214.731 106.757L219.726 107.915L224.337 110.231L223.952 111.775L218.958 109.459L213.194 107.915L210.505 107.529V106.371Z" fill="#131213"/>
<path d="M215.499 114.091L217.036 114.863L217.42 117.179L216.267 119.495L215.883 119.881H213.962V116.021L215.499 114.091Z" fill="#131213"/>
<path d="M384.182 245.722L390.694 245.333L391.086 247.651L387.793 246.741L385.29 246.029L384.182 245.722Z" fill="#E9F6F6"/>
<path d="M233.941 241.089L235.862 241.861V242.633L237.399 243.019L239.32 244.949L239.705 245.721L238.168 245.335L234.326 242.247L233.941 241.089Z" fill="#DAF1F1"/>
<path d="M378.791 283.164L382.249 283.55L383.402 283.936L383.786 285.094L382.249 285.48L379.175 283.936L378.791 283.164Z" fill="#CBECEC"/>
<path d="M242.394 357.664H245.468V358.436L246.236 358.822H242.778L241.241 358.05L242.394 357.664Z" fill="#B4E5E5"/>
</svg>
