<svg  viewBox="0 0 171 136" fill="none" xmlns="http://www.w3.org/2000/svg">
<rect width="100%" height="100%" fill="#00C441"/>
<path d="M90.6049 58.6646H92.4479L94.5542 59.038L95.2563 59.318L96.1339 59.598V59.7847L97.0115 60.0648L97.187 60.1581V60.3448L97.9768 60.6248L98.2401 60.8115L98.5034 61.0915L98.7667 61.1849L98.8545 61.4649L99.5565 61.7449L101.838 60.5315L102.891 60.0648L103.418 59.8781H103.857L103.945 59.9714V75.2797L104.12 77.6132L104.383 78.9201L104.734 80.1335L104.998 80.3202L105.085 80.9736L102.891 83.3072L102.54 83.4005L102.365 83.8672L102.014 84.0539L101.4 83.9606L100.873 83.6805L100.785 83.4005L100.259 83.2138V82.8405L99.8198 82.7471L99.2933 82.3737L99.1177 82.1871H98.8545L98.6789 82.5604L97.8891 82.9338H97.7136L97.6258 83.2138L96.7482 83.5872L96.6604 83.7739L94.9052 84.4273L93.0622 84.894L91.4825 84.9874L89.9906 84.894L87.9721 84.4273L86.2169 83.7739L85.6026 83.4005L84.0229 82.4671L83.233 81.7203V81.5337L82.7942 81.347L82.7065 80.9736L82.2677 80.7869L82.0921 80.4135L81.3023 79.5735L80.6002 78.2667L80.0736 77.1465L79.7226 75.9331L79.5471 75.653L79.0205 72.4794V70.9859L79.4593 68.4656L79.6348 67.9056L80.2492 66.0387L80.5124 65.9454L80.6002 65.3853L80.8635 64.9186H81.039L81.3023 63.9852L81.6533 63.7985L81.8289 63.3318H82.1799L82.3554 62.7717L82.7065 62.585V62.305L83.233 62.025L83.4085 61.6516L83.8474 61.4649L84.0229 61.1849L84.725 60.8115L84.9882 60.5315L87.0067 59.5047L88.6742 58.9446L90.6049 58.6646Z" fill="#FCFCFC"/>
<path d="M46.198 58.6646H48.1287L50.0594 58.9446L51.3759 59.4114L52.0779 59.598L52.3412 59.8781L52.9555 60.0648V60.3448L53.4821 60.5315L54.5352 61.2782L54.623 61.4649L55.0618 61.6516L55.6761 61.5582L57.7824 60.4381L59.0988 59.8781H59.5376L59.6254 73.2261L59.8009 77.0532L60.0642 78.7334L60.3275 79.4801L60.503 80.2269L60.7663 80.3202L60.854 80.9736L59.1866 82.7471L59.011 82.8405L58.8355 82.7471L58.7478 83.2138L58.5722 83.4005H58.309L58.1334 83.8672L57.8702 83.9606L57.6946 84.2406L56.6415 83.6805V83.4005L56.1149 83.2138L55.9394 82.9338L55.1496 82.4671L55.0618 82.1871L54.623 82.2804L54.4475 82.5604L53.6576 82.9338H53.4821L53.3944 83.2138L52.5167 83.5872L52.1657 83.8672L51.2881 84.2406L50.6738 84.4273L48.9186 84.894L47.9532 84.9874H46.9001L45.2326 84.8007L43.3019 84.3339L41.8977 83.7739L41.6344 83.4939L40.7568 83.0271L40.0547 82.5604L39.6159 82.3737V82.0937L39.0893 81.907L38.6505 81.4403L38.2995 80.8803L37.8607 80.4135L37.1586 79.4801L36.281 77.9866L35.6667 76.5865L35.2279 75.1863L34.8768 73.3195L34.7891 72.2927V71.3593L34.9646 69.7724L35.3156 67.9989L36.281 65.6653L36.9831 64.4519L37.5974 63.6118L38.3873 62.6784L38.6505 62.2116L39.0016 62.1183L39.1771 61.6516L39.6159 61.4649L39.7037 61.1849L40.318 60.9048H40.5813V60.6248L42.161 59.7847H42.4243V59.598L44.4428 58.9446L46.198 58.6646Z" fill="#FCFCFC"/>
<path d="M134.486 58.758H136.241L137.821 58.9447L138.611 59.2247L139.751 59.5047L140.19 59.7848L140.98 60.1581L141.945 60.7182L143.174 61.6516L143.613 62.1183L143.964 62.2117L144.139 62.6784L144.491 62.8651L144.666 63.2385L145.105 63.7052L145.544 64.2652L146.246 65.4787L146.86 66.7855L147.299 67.999L147.65 69.3991L147.825 70.9859V73.0395L147.65 74.6263L147.036 76.6799L146.509 77.9867L146.246 78.4534L145.631 79.3868L145.544 79.7602L145.28 79.8535L145.017 80.3202L144.754 80.5069L144.491 80.9736L144.227 81.067L143.964 81.5337L143.701 81.627L143.613 81.9071L143.086 82.2804L142.823 82.5605L141.945 83.0272L140.892 83.6806L139.839 84.1473L138.874 84.5207L137.557 84.894L136.855 84.9874H134.047L132.906 84.8007L131.063 84.2406L129.659 83.4939L127.904 82.4671L127.026 81.7204L126.149 80.787L125.622 80.0402L124.832 78.8267L124.13 77.5199L123.691 76.3065L123.428 75.6531L122.989 72.8528L122.901 71.7327L123.165 69.4924L123.516 67.999L124.042 66.5988L124.569 65.4787L124.744 65.3854L125.008 64.6386L125.271 64.4519L125.534 63.7985L125.797 63.7052L126.149 63.2385H126.324L126.5 62.7717L126.851 62.5851L126.938 62.305H127.114V62.1183H127.465L127.553 61.6516L128.606 60.9049L129.045 60.6249L129.571 60.3448H129.747V60.1581L130.8 59.6914L131.414 59.4114L133.082 58.9447L134.486 58.758Z" fill="#FCFCFC"/>
<path d="M118.513 44.4765L118.952 44.5698L119.654 46.1567V46.3434H119.829L120.18 47.1834V47.3701L120.444 47.4635L120.707 48.3969L119.917 48.7703L119.039 49.4237L118.337 50.1704L117.986 50.2638L117.811 50.8238L117.548 50.9172L117.284 51.4772L117.109 51.5706L116.67 52.5973L116.407 53.8108L116.231 55.3043V59.2247L118.337 58.478L119.215 58.1979H119.829L120.093 62.3984L120.005 62.9584L119.917 63.1451L118.864 63.6118L117.197 64.5453L116.845 64.6386L116.758 64.9186L116.494 65.012V66.3188L116.758 69.7725L117.109 77.0532V80.9736L116.758 83.4005L116.143 85.4541L115.617 86.6676L115.09 87.7877H114.915L114.739 88.3477L114.213 89.0945L114.125 89.3745L113.774 89.5612L113.598 90.0279L113.335 90.1212L113.072 90.588L112.545 90.6813L112.019 90.4013V90.2146L111.229 89.9346L110.878 89.5612L110.439 89.2812V89.0945L109.649 88.8144L109.474 88.7211V88.4411L109.035 88.3477L108.771 88.161L108.859 87.5076L109.474 86.5742L110 85.7341L110.527 84.8007L110.702 84.334H110.878L110.966 83.5872L111.229 82.5605L111.317 82.3738L111.404 81.5337V76.1198L110.966 69.8658L110.614 64.0785L110.527 62.1183V55.8644L110.702 53.9975L111.141 51.6639L111.755 50.2638H111.931L112.106 49.6104L112.633 48.957L112.721 48.6769L113.072 48.4903L113.247 48.0235L113.598 47.8369L113.774 47.4635L114.125 47.3701L114.3 46.9034L114.739 46.7167L115.003 46.4367L115.792 45.8766L116.231 45.5966H116.407V45.4099L117.46 44.8499L118.074 44.5698L118.513 44.4765Z" fill="#FCFCFC"/>
<path d="M73.0523 48.957L73.2278 49.0503L73.3156 51.2905V53.5308L73.0523 63.7052L72.789 72.1994V77.3333L73.0523 79.3868L73.4033 81.347L73.5789 81.5337L73.8422 82.7472L74.1054 82.8405L74.4565 83.7739L74.632 83.8673L74.8953 84.4273L75.3341 84.894L76.3872 86.2008L76.6505 86.4809L76.826 86.5742V87.0409L76.3872 87.321L76.1239 87.7877L75.7729 87.9744L75.6851 88.2544L75.3341 88.4411L75.1586 88.9078H74.8075L74.632 89.4679L74.281 89.6545L74.1054 90.0279L73.4911 90.4013L72.6135 89.7479L71.9114 89.1878L70.7705 88.1611L69.8929 87.1343L69.3664 86.4809L69.2786 86.1075L69.0153 86.0142L68.1377 84.334L67.6111 82.9338L67.3479 82.2804L66.9968 80.4136L66.8213 78.2667V72.8528L67.0846 66.3188L67.3479 59.038L67.5234 52.6907L67.6111 51.5706L68.0499 51.2905L70.4195 49.9837L72.1747 49.237L73.0523 48.957Z" fill="#FCFCFC"/>
<path d="M29.0845 48.957H29.2601L29.3478 50.6371L29.2601 56.2377L28.909 67.7189L28.8213 72.2927V77.2399L28.9968 79.2001L29.1723 80.2269L29.5233 81.4403L29.9621 82.7472L30.6642 84.054L31.4541 85.0807L31.8929 85.5474L32.1562 86.0142L32.5072 86.2008L32.7705 86.6676L32.946 86.8542H32.7705L32.595 87.2276L32.2439 87.4143L32.0684 87.7877L31.1908 88.7211L30.6642 89.1878L30.3132 89.6545L29.8744 90.1213L29.6989 90.4946L29.2601 90.3079L28.3824 89.7479L28.1192 89.4678L27.8559 89.3745L27.7681 89.0011L27.2416 88.8144L27.1538 88.5344L26.6272 88.161L25.6619 87.0409L25.2231 86.4809L25.0475 86.1075L24.7843 85.8275L24.1699 84.5207L23.5556 83.1205L23.029 80.0402L22.8535 76.4932L23.029 69.3991L23.2923 63.7052L23.4678 58.2913L23.6434 51.5706L24.6087 51.0105L26.0129 50.2638L27.3293 49.6104L28.7335 49.0503L29.0845 48.957Z" fill="#FCFCFC"/>
<path d="M46.6367 64.9186H47.602L49.094 65.1053L50.6737 65.6654L51.7268 66.2254L52.1656 66.6922L53.0432 67.8123L53.5698 68.7457L53.9208 69.5858L54.0963 70.7059V73.0395L53.8331 74.2529L53.482 75.093L52.7799 76.3998H52.5167L52.2534 76.9599L51.8146 77.1466L51.639 77.52L51.288 77.6133L50.937 77.9867L49.7961 78.36L49.3573 78.5467L48.2164 78.7334H46.3734L44.9692 78.4534L44.8815 78.1734L44.1794 78.08L43.8283 77.8933V77.6133L43.3018 77.52L43.214 77.1466L42.863 77.0532L42.1609 76.3065V75.9331H41.8098L41.5466 75.2797H41.371L40.9322 73.7862L40.7567 73.2262L40.6689 72.7595V70.7993L40.8445 69.7725L41.02 69.5858L41.371 68.4657H41.6343L41.7221 67.9056L42.1609 67.4389L42.5997 67.0655L42.863 66.5988L43.1262 66.5055L43.5651 66.0388L44.1794 65.6654L44.9692 65.292L45.408 65.1053L46.6367 64.9186Z" fill="#00C441"/>
<path d="M90.8681 64.9186H91.9213L93.3254 65.1053L94.9051 65.6654L95.7827 66.2254L96.4848 66.8788L97.1869 67.6256L97.8012 68.6524L97.889 69.2124H98.0645L98.3278 70.5192V73.2262L97.9768 74.533L97.4502 75.6531L96.8359 76.4932H96.6603L96.5726 76.8665L96.1338 77.1466L95.8705 77.4266L95.2562 77.7066L95.0806 77.9867L94.4663 78.1734H94.0275L93.9398 78.4534L92.4478 78.7334H90.5171L89.2007 78.4534L89.1129 78.2667L88.2353 77.9867L87.972 77.7066L87.4455 77.4266L87.3577 77.1466L87.0067 76.9599L86.5678 76.5865L85.8658 75.5597L85.778 75.2797L85.5147 74.9997L85.1637 73.7862L84.9882 73.1328L84.9004 72.8528V70.8926L85.1637 69.7725L85.6025 68.559L85.8658 68.4657L86.0413 67.8123L86.3923 67.7189L86.4801 67.2522L86.9189 66.7855L87.7087 66.1321L88.0598 66.0388V65.8521L89.3762 65.1987L90.8681 64.9186Z" fill="#00C441"/>
<path d="M135.013 65.012L136.417 65.1053L137.47 65.3853L138.523 65.8521L139.313 66.3188L139.488 66.5988L139.927 66.8788V67.1589L140.278 67.2522L140.541 67.7189L140.805 67.9056L141.068 68.4657L141.331 68.839L141.595 69.7725L141.77 70.0525L141.946 71.4526L141.858 73.1328L141.507 74.3463L141.156 75.2797H140.98L140.805 75.8398L140.015 76.8665L139.225 77.6133L138.874 77.7066L138.698 77.9866L137.821 78.2667L137.558 78.5467L136.68 78.7334L135.1 78.8267L134.047 78.7334L132.994 78.36L131.941 77.8L131.151 77.1466L130.712 76.7732L129.835 75.5597L129.308 74.4396L129.045 73.4128L128.957 72.7594V71.7327L129.045 70.4259L129.308 69.3057L129.571 68.839L129.922 68.279H130.098L130.186 67.8123L130.361 67.4389L130.8 66.9722L131.59 66.3188L132.555 65.6654L133.784 65.1986L135.013 65.012Z" fill="#00C441"/>
</svg>
