<svg viewBox="0 0 23 33" fill="none" xmlns="http://www.w3.org/2000/svg">
<path d="M18.1648 31.6516H8.71655C4.66537 26.7851 2.47266 21.7076 1.8827 19.7771C0.76007 17.5324 3.97792 16.0858 5.07638 17.6081L7.27079 20.9493V8.85292C7.27079 6.40865 11.4358 6.33395 11.4358 8.85296V16.0858C12.9822 14.4896 14.5876 15.2721 15.0043 16.5939C16.0531 15.3727 18.1456 15.9611 18.1456 17.6081C23.9313 15.2131 22.2981 28.1479 18.1648 31.6516Z" stroke="white"/>
<path d="M9.44511 0C9.05923 0 8.74648 0.306114 8.74648 0.683782V4.78573C8.74648 5.1634 9.05924 5.46951 9.44511 5.46951C9.83099 5.46951 10.1437 5.16339 10.1437 4.78573V0.683782C10.1437 0.306108 9.83098 0 9.44511 0ZM0.811663 4.78573C0.618862 5.11278 0.72853 5.52623 1.06269 5.71519L4.697 7.76626C5.03115 7.95496 5.45358 7.84763 5.64665 7.52058C5.83945 7.19352 5.72978 6.78007 5.39562 6.59111L1.76131 4.54004C1.35973 4.3341 1.01935 4.4918 0.811663 4.78573ZM17.1288 4.54004L13.4945 6.59111C13.1604 6.77981 13.0507 7.19354 13.2435 7.52058C13.4363 7.84761 13.859 7.95496 14.1931 7.76626L17.8275 5.71519C18.1616 5.52649 18.2713 5.11276 18.0785 4.78573C17.8261 4.4168 17.4922 4.36352 17.1288 4.54004Z" fill="white"/>
</svg>
