<svg width="50" height="47" viewBox="0 0 50 47" fill="none" xmlns="http://www.w3.org/2000/svg">
<path d="M19.3352 24.7925H19.6108L19.917 24.8806L20.3764 25.145L21.1727 25.5856L21.9077 25.9675L22.5508 26.32L23.3777 26.7606L24.6333 27.4363L26.0114 28.1706L26.6852 28.5231L27.1445 28.7875L27.4814 28.9638L28.1858 29.3456L28.7983 29.6688L29.5027 30.0506L30.2683 30.4619L30.697 30.6969L31.4627 31.1081L32.0445 31.4019L32.5039 31.6075L33.0245 31.7838L33.2083 31.9306L33.2389 32.0188V41.4775L33.2083 44.2975L33.1777 44.6206L33.0552 44.7969L32.8102 44.9438L32.4733 45.0319L31.7077 45.0613L29.0739 45.0906H6.68703L6.22766 45.0319L6.07453 44.9438L5.89078 44.65L5.82953 44.3856L5.76828 43.3575L5.73766 42.2706L5.70703 39.95V37.5413L5.73766 32.9294L5.76828 32.0481L5.86016 31.9013L6.16641 31.7544L6.77891 31.49L7.54453 31.1081L8.27953 30.6969L9.04516 30.2856L9.56578 29.9919L11.1583 29.14L11.8933 28.7581L13.1795 28.0531L13.9452 27.6419L15.5989 26.7606L16.0889 26.4963L16.8852 26.0556L17.6508 25.6444L18.1714 25.38L18.8452 25.0275L19.0902 24.8806L19.3352 24.7925Z" fill="white"/>
<path d="M29.2265 7.84314L29.594 7.90189L29.9309 8.07814L30.4821 8.37189L31.064 8.69501L31.4315 8.87126L32.534 9.45876L32.9628 9.69376L33.2996 9.87001L33.8203 10.1344L34.5246 10.5163L35.6271 11.1038L36.3928 11.515L37.2809 11.985L38.0159 12.3669L39.6696 13.2481L40.3434 13.6006L41.7828 14.3644L42.4565 14.7169L43.0078 15.0106L43.6815 15.3631L44.2021 15.6275L44.8759 15.8919L44.9678 15.98L44.9984 16.0681V34.9856L44.9678 40.2438L44.9371 40.7725L44.8453 40.9781L44.6003 41.1838L44.294 41.2719L44.0184 41.3013L41.9971 41.3306L37.6178 41.36H35.9946L35.229 41.3306L35.1678 41.2719L35.1371 40.655V35.015L35.1678 32.1069L35.229 31.96L35.4434 31.8719L35.9334 31.7838L36.4234 31.6369L36.944 31.3725L37.3115 31.0494L37.5565 30.7556L37.8321 30.1975L37.9853 29.7275L38.0465 29.375L38.0771 29.0519V28.0825L38.0159 27.5244L37.8934 27.0838L37.679 26.6138L37.434 26.2613L37.0665 25.9088L36.454 25.5269L35.9334 25.2331L34.1571 24.2931L33.2996 23.8525L32.5646 23.4706L31.8603 23.0888L31.1865 22.7363L29.5328 21.855L28.7365 21.4438L28.0015 21.0619L27.2971 20.68L26.4396 20.2394L25.7659 19.8869L24.8778 19.4169L24.1428 19.035L23.4384 18.6531L22.7646 18.3006L22.0603 17.9188L21.2946 17.5369L20.7128 17.2431L20.1921 17.0375L19.7328 16.92L19.549 16.9494V16.8906L18.9671 16.9494L18.4159 17.1256L17.8034 17.39L17.1296 17.7425L16.0884 18.2713L15.2309 18.7119L13.9753 19.4169L13.7609 19.5344H13.669L13.6078 19.27L13.5771 16.0975L13.6384 15.9506L13.9446 15.7744L14.3734 15.6275L15.2003 15.2456L15.9353 14.8344L16.6703 14.4525L17.4053 14.0413L18.0178 13.7181L18.6609 13.3656L19.4571 12.9544L20.3146 12.5138L21.1415 12.0731L21.9378 11.6325L23.3465 10.8981L24.1428 10.4869L25.5209 9.75251L26.409 9.28251L27.1134 8.90064L27.9709 8.46001L28.6753 8.07814L29.104 7.87251L29.2265 7.84314Z" fill="white"/>
<path d="M29.1042 1.79187H29.3798L29.8086 1.93875L30.5436 2.29125L30.9723 2.52625L31.4623 2.76125L32.3198 3.20187L33.1161 3.61312L33.7592 3.96562L34.3411 4.25937L35.0148 4.61187L35.8111 5.02312L36.4542 5.37562L37.1586 5.72812L37.8323 6.08062L38.6286 6.49187L38.9348 6.66812L39.7311 7.07937L40.4355 7.46124L43.5592 9.07687L44.6617 9.66437L45.458 10.0756L46.1623 10.4575L46.7748 10.7806L47.3261 11.1331L47.663 11.3975L47.8467 11.6325L47.908 11.8087L47.9386 12.0437V12.8369L47.8773 13.3656L47.663 13.7769L47.418 13.9825L47.2342 14.0412L46.0092 14.1H45.3661L44.9373 13.9825L44.4473 13.7475L43.7736 13.395L43.008 12.9837L42.273 12.6019L41.5686 12.22L40.8336 11.8381L40.1905 11.4856L39.6392 11.1919L38.2305 10.4281L36.8523 9.69374L36.2398 9.37062L35.5967 9.01812L34.8617 8.63624L34.2186 8.28374L33.3305 7.81374L32.6261 7.43187L32.0136 7.10874L31.3092 6.72687L30.513 6.31562L29.8698 5.96312L29.533 5.75749L29.4105 5.69874L29.1348 5.75749L28.7367 5.96312L28.1855 6.25687L27.5117 6.60937L26.8686 6.96187L26.1948 7.31437L25.613 7.63749L25.2455 7.81374L24.633 8.16624L24.3267 8.31312L23.7755 8.60687L23.1017 8.95937L21.5705 9.78187L20.8355 10.1637L20.1923 10.5162L19.4573 10.8981L18.9673 11.1625L17.3748 12.0144L16.9461 12.2494L16.2417 12.6312L14.8636 13.3656L14.0367 13.7769L13.6998 13.9237L13.2405 14.0412L12.5667 14.1H11.648L11.1886 14.0119L10.9742 13.865L10.7905 13.6006L10.6986 13.3362L10.668 13.0425V11.8969L10.7598 11.6325L10.8823 11.3975L11.0967 11.1919L11.9848 10.7219L12.7811 10.3106L13.4855 9.92874L14.2817 9.51749L14.9861 9.13562L15.6598 8.78312L16.4561 8.37187L17.1298 8.01937L17.6198 7.75499L19.3348 6.87374L20.713 6.13937L21.3867 5.78687L21.938 5.49312L22.3667 5.28749L23.0098 4.93499L23.9286 4.46499L24.6023 4.11249L25.123 3.84812L25.8273 3.46625L26.3786 3.1725L27.6648 2.52625L28.3692 2.14437L28.798 1.90937L29.1042 1.79187Z" fill="white"/>
<path d="M19.3044 18.7119H19.5187L19.9781 18.8588L20.7131 19.2113L21.2644 19.505L22.1219 19.9456L22.8263 20.3275L23.8062 20.8269L24.5106 21.2088L25.3681 21.6494L25.8581 21.9138L27.5731 22.8244L28.4 23.265L29.135 23.6469L29.8394 24.0288L30.5744 24.4106L31.2787 24.7925L32.1362 25.2331L32.7794 25.5856L34.1269 26.2906L34.8312 26.6431L35.2294 26.8781L35.5662 27.0838L35.9031 27.3481L36.0869 27.5538L36.1481 27.7006L36.2094 28.1413V28.5819L36.1481 29.3456L36.0256 29.6394L35.8725 29.845L35.6275 29.9919L35.4131 30.0506L34.3412 30.1094H33.8206L33.4531 30.0506L32.9631 29.8744L32.2894 29.5219L31.585 29.14L30.9725 28.8169L30.4519 28.5231L29.7169 28.1413L28.645 27.5538L27.9406 27.1719L27.175 26.7606L26.3787 26.32L25.6131 25.9088L24.3269 25.2038L23.8369 24.9394L23.1325 24.5575L22.8263 24.3813L22.1831 24.0288L21.295 23.5588L20.56 23.1475L19.8556 22.7656L19.7025 22.6481L19.5494 22.5894L19.5187 22.7069L19.3962 22.7656L19.4269 22.6481L19.0594 22.8244L18.3856 23.1769L17.8344 23.4706L17.1606 23.8525L16.8237 24.0288L15.9969 24.4694L14.5881 25.2331L13.9144 25.5856L12.8425 26.1731L12.1381 26.555L11.6481 26.8194L11.3112 26.9956L10.515 27.4363L9.68812 27.8769L9.35125 28.0825L9.01437 28.2588L8.52437 28.5231L8.065 28.7875L7.63625 28.9931L6.90125 29.4044L6.01312 29.845L5.67625 29.9625L5.18625 30.0506L4.72687 30.08H3.80812L3.34875 29.9919L3.10375 29.7863L2.92 29.4925L2.85875 29.2281L2.82812 28.9344V27.8769L2.95062 27.5538L3.13437 27.2894L3.37937 27.1131L4.145 26.7019L4.69625 26.4081L5.33937 26.0556L5.82937 25.7913L6.7175 25.3213L7.23812 25.0569L7.75875 24.7631L8.61625 24.3225L9.32062 23.9406L10.1781 23.5L11.8931 22.5894L12.5669 22.2369L13.2712 21.855L14.0062 21.4731L14.5575 21.1794L15.2925 20.7975L15.7825 20.5331L17.4362 19.6519L18.11 19.2994L18.6612 19.0056L19.1512 18.7706L19.3044 18.7119Z" fill="white"/>
</svg>
