<svg width="24" height="25" viewBox="0 0 24 25" fill="none" xmlns="http://www.w3.org/2000/svg">
<path d="M9.36582 19.9162C10.9035 19.9162 12.4363 19.5012 13.8127 18.691C14.6812 20.036 16.2471 21.9211 17.111 22.8362C18.2405 24.0214 19.2134 24.6463 20.0866 24.7514C20.1766 24.7662 20.2669 24.7714 20.3524 24.7714C21.0072 24.7714 21.6148 24.4664 22.1936 23.8563C22.8533 23.1612 23.1332 22.4361 23.0431 21.6362C22.9436 20.7162 22.3503 19.6911 21.2255 18.501C20.357 17.591 18.5727 15.946 17.2914 15.0309C18.0506 13.6158 18.4588 12.0157 18.4588 10.3455C18.4588 7.78533 17.5143 5.38029 15.7965 3.57528C12.2515 -0.159861 6.48516 -0.164983 2.94487 3.57016C-0.600113 7.3053 -0.600113 13.381 2.94487 17.1159C4.71479 18.9862 7.04016 19.9162 9.36582 19.9162ZM3.61398 4.28023C5.19914 2.60516 7.28234 1.77009 9.36582 1.77009C11.4539 1.77009 13.5374 2.61004 15.1273 4.28023C16.665 5.9004 17.5096 8.05539 17.5096 10.346C17.5096 12.6361 16.665 14.7912 15.1273 16.4064C11.9523 19.7516 6.78916 19.7565 3.61398 16.4115C0.439249 13.066 0.439249 7.62038 3.61398 4.28023Z" fill="black"/>
</svg>
