<svg width="62" height="51" viewBox="0 0 62 51" fill="none" xmlns="http://www.w3.org/2000/svg">
<path d="M12.444 44.7809L5.88557 46.1985L0.898438 29.0257L7.45684 27.6081C8.66506 27.347 9.97635 28.0728 10.2981 29.1809L14.0903 42.2388C14.4345 43.4259 13.7384 44.5013 12.444 44.7811L12.444 44.7809ZM57.4334 27.9075L43.0477 41.5304C40.1705 44.2549 36.0284 45.1501 32.3992 44.3369C20.9527 42.1851 19.0262 40.9195 14.9471 41.7168L11.3618 29.3711L19.9912 27.5059C26.7222 26.051 28.2445 31.6095 35.4073 30.0613L41.1028 28.8302C42.3111 28.569 43.6224 29.2949 43.9441 30.403C44.2659 31.511 43.5062 32.6845 42.298 32.9457L30.6488 35.4636C30.39 35.5196 30.2633 35.7152 30.3322 35.9526C30.4012 36.1899 30.6198 36.3109 30.8786 36.255L42.5278 33.737C43.0458 33.6251 43.4543 33.4528 43.7301 33.1406L54.2423 24.8126C55.1169 24.0348 56.6127 24.132 57.5156 25.0305C58.3319 25.9473 58.3084 27.1299 57.4337 27.9077L57.4334 27.9075Z" fill="white"/>
<path d="M40.2481 0.0865173C38.8379 0.0865173 37.6905 1.17368 37.6905 2.50996C37.6905 2.6125 37.7092 2.71021 37.7222 2.809C37.7466 2.99476 37.7896 3.17406 37.8559 3.34425L34.4547 5.76124C34.0303 5.46274 33.509 5.27967 32.9407 5.27967C32.2069 5.27967 31.5491 5.57817 31.0823 6.04847L28.1462 4.65746C28.1712 4.52163 28.1904 4.38366 28.1904 4.24139C28.1904 4.13885 28.1717 4.04115 28.1587 3.94235C28.0012 2.74836 26.9349 1.81797 25.6328 1.81797C24.2226 1.81797 23.0752 2.90514 23.0752 4.24142C23.0752 5.5777 24.2226 6.66487 25.6328 6.66487C26.3666 6.66487 27.0244 6.36636 27.4912 5.89607L30.4273 7.28708C30.4023 7.4229 30.3825 7.56088 30.3825 7.70368C30.3825 9.03995 31.5299 10.1271 32.9401 10.1271C34.3504 10.1271 35.4978 9.03996 35.4978 7.70368C35.4978 7.40948 35.4338 7.1303 35.3318 6.86939L38.7324 4.4524C39.1585 4.75091 39.6792 4.93397 40.248 4.93397C41.6583 4.93397 42.8057 3.84681 42.8057 2.51052C42.8057 1.17424 41.6584 0.0865173 40.2481 0.0865173ZM26.6091 4.70361C26.4884 4.9307 26.2855 5.11109 26.034 5.20558C25.9093 5.25229 25.775 5.27966 25.6328 5.27966C25.0283 5.27966 24.5365 4.81367 24.5365 4.24082C24.5365 3.66798 25.0283 3.20198 25.6328 3.20198C26.136 3.20198 26.5564 3.52626 26.685 3.96488C26.6992 4.0132 26.7088 4.06205 26.7156 4.11251C26.7207 4.15546 26.7292 4.19734 26.7292 4.24136C26.7292 4.40832 26.6833 4.56403 26.6091 4.70361ZM34.027 7.79652C33.976 8.32534 33.5114 8.74194 32.9408 8.74194C32.4377 8.74194 32.0173 8.41767 31.8887 7.97905C31.8626 7.891 31.8445 7.79973 31.8445 7.70364C31.8445 7.53668 31.8904 7.38097 31.9646 7.24086C32.0853 7.01377 32.2881 6.83338 32.5397 6.73889C32.6638 6.69218 32.7986 6.66481 32.9408 6.66481C33.0145 6.66481 33.0859 6.67232 33.1556 6.68521C33.4247 6.73621 33.6553 6.88224 33.8145 7.08248C33.9522 7.25643 34.0366 7.46956 34.0366 7.70364C34.0366 7.73531 34.0298 7.76538 34.027 7.79652ZM40.2483 3.54886C40.1746 3.54886 40.1026 3.54134 40.033 3.52845C39.7644 3.47745 39.5338 3.33142 39.3746 3.13118C39.2624 2.98999 39.1899 2.82248 39.1655 2.63887C39.1604 2.59592 39.1525 2.55405 39.1525 2.51003C39.1525 2.47781 39.1593 2.44775 39.1627 2.41661C39.2131 1.88833 39.6777 1.47172 40.2483 1.47172C40.8528 1.47172 41.3446 1.93772 41.3446 2.51056C41.3446 3.08287 40.8528 3.54886 40.2483 3.54886Z" fill="white"/>
<path d="M23.8061 8.74127C23.4021 8.74127 23.0752 9.05104 23.0752 9.43384V21.5515C23.0752 21.9337 23.4021 22.244 23.8061 22.244H27.46C27.864 22.244 28.1909 21.9343 28.1909 21.5515L28.1904 9.43384C28.1904 9.05159 27.8634 8.74127 27.4595 8.74127H23.8061ZM26.7291 20.8589H24.537L24.5364 10.1264H26.7286L26.7291 20.8589Z" fill="white"/>
<path d="M31.1137 12.2029C30.7097 12.2029 30.3828 12.5127 30.3828 12.8955V21.5509C30.3828 21.9332 30.7097 22.2435 31.1137 22.2435H34.7676C35.1716 22.2435 35.4986 21.9337 35.4986 21.5509V12.8955C35.4986 12.5132 35.1716 12.2029 34.7676 12.2029H31.1137ZM34.0367 20.8583H31.8446V13.5876H34.0367V20.8583Z" fill="white"/>
<path d="M38.4223 7.01074C38.0183 7.01074 37.6914 7.32051 37.6914 7.70331V21.5516C37.6914 21.9338 38.0183 22.2441 38.4223 22.2441H42.0762C42.4802 22.2441 42.8071 21.9344 42.8071 21.5516L42.8066 7.70331C42.8066 7.32106 42.4797 7.01074 42.0757 7.01074H38.4223ZM41.3453 20.859H39.1532V8.39502H41.3453V20.859Z" fill="white"/>
</svg>
