<svg width="78" height="29" viewBox="0 0 78 29" fill="none" xmlns="http://www.w3.org/2000/svg">
<path fill-rule="evenodd" clip-rule="evenodd" d="M57.6627 8.46546L57.9771 8.65258L58.606 8.77733L65.0207 9.52581L66.53 9.7753L67.9136 10.1495L69.0456 10.5238L70.5549 11.2099L71.8127 11.896L72.8818 12.6445L73.6365 13.2058L74.7685 14.0791L75.586 14.7028L76.0262 15.077V15.2018H76.152L76.7809 16.0126L77.284 16.9482L77.6613 18.071L77.7871 19.1313V25.93L77.284 25.9924H65.8382L65.964 25.6805L66.4671 24.4954L66.7816 23.3103L66.8445 22.8113V20.9401L66.6558 19.8798L66.2785 18.7571L65.7754 17.7591L65.3351 17.073L64.7691 16.3869L64.266 15.8879L63.4485 15.2642L62.2536 14.6404L61.1845 14.2662L60.1153 14.0791H58.606L57.3482 14.3286L56.4678 14.6404L55.3987 15.2018L54.5811 15.8255L53.6378 16.7611L52.8831 17.8838L52.38 18.9442L52.0656 19.9422L51.8769 21.0649V22.6242L52.0656 23.7469L52.38 24.8073L52.8831 25.8676V25.9924H19.3005L19.4262 25.6181L19.8036 24.7449L20.118 23.7469L20.3067 22.6242V21.0649L20.118 19.9422L19.6778 18.6323L19.1118 17.572L18.4829 16.6987L17.854 16.0126L16.9736 15.3265L15.8416 14.7028L14.8353 14.3286L13.5776 14.0791H12.0682L10.8105 14.3286L9.93001 14.6404L8.8609 15.2018L8.10624 15.7631L7.47735 16.3245L6.91135 17.0106L6.47113 17.6343L5.96801 18.6323L5.59068 19.6303L5.40201 20.4411L5.33913 21.0025V22.8113L5.52779 23.8717L5.90513 24.9944L6.34535 25.8676V25.9924H5.33913L4.52157 25.7429L4.01846 25.3686L3.57824 24.932L2.82357 23.4974L2.32046 22.4995L1.75446 21.4391L0.999793 19.8174L0.685348 18.6323L0.55957 17.5096V11.397L0.748237 10.8356L1.06268 10.4614L1.62868 10.1495L6.40824 10.0872L6.91135 9.96242L7.7289 9.33869L8.48357 8.77733C16.9236 2.22334 29.106 0.432905 34.1422 0.356934C42.9336 0.46982 49.4336 2.96982 57.6627 8.46546ZM32.1611 9.33869L31.9336 1.96981C25.5336 2.34098 19.6611 3.99166 17.6611 5.01569L17.3093 9.33869H32.1611ZM35.9098 9.33869L35.4336 1.96981C42.4725 1.54574 52.3571 6.54232 55.3987 9.33869H35.9098ZM15.983 9.33869L16.4336 5.46981C16.1151 5.598 15.8207 5.71547 15.5455 5.82529C13.1562 6.77854 12.6077 7.15578 9.96349 8.97442C9.79564 9.08986 9.61934 9.21111 9.43359 9.33869H15.983ZM40.5596 12.3451H36.5596C36.1596 12.7451 36.3929 13.1784 36.5596 13.3451H40.5596C40.9596 12.9451 40.7262 12.5117 40.5596 12.3451ZM59.3525 28.6431C63.2185 28.6431 66.3525 25.5091 66.3525 21.6431C66.3525 17.7771 63.2185 14.6431 59.3525 14.6431C55.4865 14.6431 52.3525 17.7771 52.3525 21.6431C52.3525 25.5091 55.4865 28.6431 59.3525 28.6431ZM59.3525 27.1431C62.3901 27.1431 64.8525 24.6807 64.8525 21.6431C64.8525 18.6055 62.3901 16.1431 59.3525 16.1431C56.315 16.1431 53.8525 18.6055 53.8525 21.6431C53.8525 24.6807 56.315 27.1431 59.3525 27.1431ZM12.8179 28.6431C16.6839 28.6431 19.8179 25.5091 19.8179 21.6431C19.8179 17.7771 16.6839 14.6431 12.8179 14.6431C8.95188 14.6431 5.81787 17.7771 5.81787 21.6431C5.81787 25.5091 8.95188 28.6431 12.8179 28.6431ZM12.8179 27.1431C15.8554 27.1431 18.3179 24.6807 18.3179 21.6431C18.3179 18.6055 15.8554 16.1431 12.8179 16.1431C9.7803 16.1431 7.31787 18.6055 7.31787 21.6431C7.31787 24.6807 9.7803 27.1431 12.8179 27.1431Z" fill="white"/>
</svg>
